<svg preserveAspectRatio="none" width="100%" height="100%" overflow="visible" style="display: block;" viewBox="0 0 473.1 681.484" fill="none" xmlns="http://www.w3.org/2000/svg">
<g id="Pose #2">
<path id="Vector 9" d="M442.614 249C419.47 303.387 347.114 366.419 347.114 366.419L320.614 301.419L385.114 222.5C385.114 222.5 380.614 68.5 418.614 34.9188C425.85 28.5244 438.614 33.5071 442.614 34.9188C490.477 51.8118 475.35 172.072 442.614 249Z" fill="url(#paint0_linear_0_4)"/>
<path id="Vector 8" d="M29.8666 245C52.5779 300.888 125.367 366.419 125.367 366.419L151.867 301.419L85.6142 211.5C85.6142 211.5 90.0964 67.5033 51.3664 34.9188C46.1142 30.5 33.8667 33.5071 29.8667 34.9188C-17.9964 51.8118 -1.01995 168.994 29.8666 245Z" fill="url(#paint1_linear_0_4)"/>
<path id="Vector 7" d="M325.114 642.5L317.614 541L257.614 552L262.614 675C262.614 675 348.114 692.5 348.114 670C348.114 646.192 325.114 642.5 325.114 642.5Z" fill="url(#paint2_linear_0_4)"/>
<path id="Vector 6" d="M162.614 642.5L170.114 541L230.114 552L225.114 675C225.114 675 139.614 692.5 139.614 670C139.614 646.192 162.614 642.5 162.614 642.5Z" fill="url(#paint3_linear_0_4)"/>
<path id="Vector 3" d="M102.614 471.915C102.614 394.453 140.108 301 140.108 301H322.443C322.443 301 366.614 376.962 366.614 471.915C366.614 512.35 356.855 552.375 318.848 567.367C266.428 588.045 212.529 582.86 162.194 567.367C120.503 554.536 102.614 521.033 102.614 471.915Z" fill="url(#paint4_linear_0_4)"/>
<g id="Ellipse 4" filter="url(#filter0_d_0_4)">
<circle cx="238.614" cy="164" r="164" fill="url(#paint5_linear_0_4)"/>
</g>
<path id="Line 1" d="M217.635 96.3093C217.635 96.3093 228.138 99.8004 238.138 99.7919C248.138 99.7834 259.135 96.2741 259.135 96.2741" stroke="var(--stroke-0, #9CA161)" stroke-width="3"/>
<circle id="Ellipse 5" cx="184.114" cy="62.5" r="20.5" fill="var(--fill-0, #9CA161)"/>
<path id="Vector 1" d="M220.785 78.6584L236.292 47.6445C237.422 45.3839 240.67 45.4485 241.71 47.7523L255.704 78.7661C256.6 80.7517 255.148 83 252.969 83H223.468C221.238 83 219.788 80.6531 220.785 78.6584Z" fill="var(--fill-0, #9CA161)" stroke="var(--stroke-0, #9CA161)" stroke-width="2"/>
<circle id="Ellipse 6" cx="292.114" cy="62.5" r="20.5" fill="var(--fill-0, #9CA161)"/>
</g>
<defs>
<filter id="filter0_d_0_4" x="70.6142" y="0" width="336" height="336" filterUnits="userSpaceOnUse" color-interpolation-filters="sRGB">
<feFlood flood-opacity="0" result="BackgroundImageFix"/>
<feColorMatrix in="SourceAlpha" type="matrix" values="0 0 0 0 0 0 0 0 0 0 0 0 0 0 0 0 0 0 127 0" result="hardAlpha"/>
<feOffset dy="4"/>
<feGaussianBlur stdDeviation="2"/>
<feComposite in2="hardAlpha" operator="out"/>
<feColorMatrix type="matrix" values="0 0 0 0 0 0 0 0 0 0 0 0 0 0 0 0 0 0 0.25 0"/>
<feBlend mode="normal" in2="BackgroundImageFix" result="effect1_dropShadow_0_4"/>
<feBlend mode="normal" in="SourceGraphic" in2="effect1_dropShadow_0_4" result="shape"/>
</filter>
<linearGradient id="paint0_linear_0_4" x1="398.114" y1="34.9188" x2="398.114" y2="366.419" gradientUnits="userSpaceOnUse">
<stop stop-color="#FBFFD4"/>
<stop offset="1" stop-color="#9CA161"/>
</linearGradient>
<linearGradient id="paint1_linear_0_4" x1="74.3667" y1="34.9188" x2="74.3667" y2="366.419" gradientUnits="userSpaceOnUse">
<stop stop-color="#FBFFD4"/>
<stop offset="1" stop-color="#9CA161"/>
</linearGradient>
<linearGradient id="paint2_linear_0_4" x1="311.614" y1="541" x2="311.614" y2="681.484" gradientUnits="userSpaceOnUse">
<stop stop-color="#9CA161"/>
<stop offset="1" stop-color="#FBFFD4"/>
</linearGradient>
<linearGradient id="paint3_linear_0_4" x1="176.114" y1="541" x2="176.114" y2="681.484" gradientUnits="userSpaceOnUse">
<stop stop-color="#9CA161"/>
<stop offset="1" stop-color="#FBFFD4"/>
</linearGradient>
<linearGradient id="paint4_linear_0_4" x1="234.614" y1="307.497" x2="234.614" y2="569.436" gradientUnits="userSpaceOnUse">
<stop stop-color="#9CA161"/>
<stop offset="1" stop-color="#FBFFD4"/>
</linearGradient>
<linearGradient id="paint5_linear_0_4" x1="238.614" y1="0" x2="238.614" y2="328" gradientUnits="userSpaceOnUse">
<stop stop-color="#FBFFD4"/>
<stop offset="0.870192" stop-color="#9CA161"/>
</linearGradient>
</defs>
</svg>
