<svg preserveAspectRatio="none" width="100%" height="100%" overflow="visible" style="display: block;" viewBox="0 0 494.909 678.484" fill="none" xmlns="http://www.w3.org/2000/svg">
<g id="Pose #3">
<path id="Vector 10" d="M382.5 639.5L375 538L315 549L320 672C320 672 405.5 689.5 405.5 667C405.5 643.192 382.5 639.5 382.5 639.5Z" fill="url(#paint0_linear_0_4)"/>
<path id="Vector 11" d="M220 639.5L227.5 538L287.5 549L282.5 672C282.5 672 197 689.5 197 667C197 643.192 220 639.5 220 639.5Z" fill="url(#paint1_linear_0_4)"/>
<path id="Vector 4" d="M29.0419 255.26C42.888 287.353 189.763 377.096 189.763 377.096L200.714 312.774L126.5 237.146C126.5 237.146 107.638 201.242 95 204.146C84.3165 206.601 88.6186 217.909 92.1412 224.445C89.5411 221.949 85.608 218.358 79.7671 213.238C55.0039 191.528 15.1958 223.167 29.0419 255.26Z" fill="url(#paint2_linear_0_4)"/>
<path id="Vector 3" d="M169 468.915C169 391.453 206.494 298 206.494 298H388.829C388.829 298 433 373.962 433 468.915C433 509.35 423.241 549.375 385.233 564.367C332.814 585.045 278.914 579.86 228.58 564.367C186.889 551.536 169 518.033 169 468.915Z" fill="url(#paint3_linear_0_4)"/>
<path id="Vector 10_2" d="M326.263 467.474L400.5 453L483.447 436.885C486.015 436.386 487.764 433.992 487.459 431.394L476.084 334.479C475.762 331.731 473.27 329.768 470.523 330.097L400.5 338.5L311.41 350.347C308.691 350.709 306.771 353.193 307.107 355.916L320.343 463.179C320.698 466.056 323.417 468.029 326.263 467.474Z" fill="var(--fill-0, #585B2E)"/>
<path id="Vector 5" d="M481.281 453.118C481.281 422.378 388.781 297.878 388.781 297.878L406.503 367.411L420.388 437.678C420.388 437.678 397.843 445.977 399.215 457.118C399.859 462.351 401.435 466.004 405.86 468.87C412.442 473.133 425.598 465.176 425.598 465.176C425.598 465.176 428.471 471.682 436.781 479.878C449.83 492.747 481.281 483.859 481.281 453.118Z" fill="url(#paint4_linear_0_4)"/>
<g id="Ellipse 1" filter="url(#filter0_d_0_4)">
<circle cx="300.5" cy="162.5" r="162.5" fill="url(#paint5_linear_0_4)"/>
</g>
<circle id="Ellipse 5" cx="246.5" cy="145.5" r="20.5" fill="var(--fill-0, #9CA161)"/>
<rect id="Rectangle 1" x="7" y="47.263" width="16.199" height="220.104" transform="rotate(-22.7448 7 47.263)" fill="var(--fill-0, #585B2E)"/>
<circle id="Ellipse 6" cx="354.5" cy="145.5" r="20.5" fill="var(--fill-0, #9CA161)"/>
<path id="Line 1" d="M280 212.035C280 212.035 290.503 215.526 300.503 215.518C310.503 215.509 321.5 212 321.5 212" stroke="var(--stroke-0, #9CA161)" stroke-width="3"/>
<path id="Vector 1" d="M283.171 191.658L298.678 160.645C299.808 158.384 303.056 158.448 304.096 160.752L318.09 191.766C318.986 193.752 317.533 196 315.355 196H285.854C283.624 196 282.173 193.653 283.171 191.658Z" fill="var(--fill-0, #9CA161)" stroke="var(--stroke-0, #9CA161)" stroke-width="2"/>
</g>
<defs>
<filter id="filter0_d_0_4" x="134" y="0" width="333" height="333" filterUnits="userSpaceOnUse" color-interpolation-filters="sRGB">
<feFlood flood-opacity="0" result="BackgroundImageFix"/>
<feColorMatrix in="SourceAlpha" type="matrix" values="0 0 0 0 0 0 0 0 0 0 0 0 0 0 0 0 0 0 127 0" result="hardAlpha"/>
<feOffset dy="4"/>
<feGaussianBlur stdDeviation="2"/>
<feComposite in2="hardAlpha" operator="out"/>
<feColorMatrix type="matrix" values="0 0 0 0 0 0 0 0 0 0 0 0 0 0 0 0 0 0 0.25 0"/>
<feBlend mode="normal" in2="BackgroundImageFix" result="effect1_dropShadow_0_4"/>
<feBlend mode="normal" in="SourceGraphic" in2="effect1_dropShadow_0_4" result="shape"/>
</filter>
<linearGradient id="paint0_linear_0_4" x1="369" y1="538" x2="369" y2="678.484" gradientUnits="userSpaceOnUse">
<stop stop-color="#9CA161"/>
<stop offset="1" stop-color="#FBFFD4"/>
</linearGradient>
<linearGradient id="paint1_linear_0_4" x1="233.5" y1="538" x2="233.5" y2="678.484" gradientUnits="userSpaceOnUse">
<stop stop-color="#9CA161"/>
<stop offset="1" stop-color="#FBFFD4"/>
</linearGradient>
<linearGradient id="paint2_linear_0_4" x1="99.6762" y1="339.46" x2="149.446" y2="220.329" gradientUnits="userSpaceOnUse">
<stop stop-color="#FBFFD4"/>
<stop offset="1" stop-color="#9CA161"/>
</linearGradient>
<linearGradient id="paint3_linear_0_4" x1="301" y1="304.497" x2="301" y2="566.436" gradientUnits="userSpaceOnUse">
<stop stop-color="#9CA161"/>
<stop offset="1" stop-color="#FBFFD4"/>
</linearGradient>
<linearGradient id="paint4_linear_0_4" x1="489.135" y1="388.599" x2="390.185" y2="444.552" gradientUnits="userSpaceOnUse">
<stop stop-color="#FBFFD4"/>
<stop offset="1" stop-color="#9CA161"/>
</linearGradient>
<linearGradient id="paint5_linear_0_4" x1="300.5" y1="0" x2="300.5" y2="325" gradientUnits="userSpaceOnUse">
<stop stop-color="#FBFFD4"/>
<stop offset="1" stop-color="#9CA161"/>
</linearGradient>
</defs>
</svg>
